<svg width="30" height="30" viewBox="0 0 30 30" fill="none" xmlns="http://www.w3.org/2000/svg">
<path fill-rule="evenodd" clip-rule="evenodd" d="M15 0C6.72 0 0 6.72 0 15C0 23.28 6.72 30 15 30C23.28 30 30 23.28 30 15C30 6.72 23.28 0 15 0ZM24.54 22.245C22.395 19.635 17.19 18.75 15 18.75C12.81 18.75 7.605 19.635 5.46 22.245C3.93 20.235 3 17.73 3 15C3 8.385 8.385 3 15 3C21.615 3 27 8.385 27 15C27 17.73 26.07 20.235 24.54 22.245ZM9.75 11.25C9.75 8.34 12.09 6 15 6C17.91 6 20.25 8.34 20.25 11.25C20.25 14.16 17.91 16.5 15 16.5C12.09 16.5 9.75 14.16 9.75 11.25Z" fill="#1C1B1F"/>
</svg>
