<?xml version="1.0" encoding="utf-8"?>
<!-- Svg Vector Icons : http://www.onlinewebfonts.com/icon -->
<!DOCTYPE svg PUBLIC "-//W3C//DTD SVG 1.1//EN" "http://www.w3.org/Graphics/SVG/1.1/DTD/svg11.dtd">
<svg version="1.1" xmlns="http://www.w3.org/2000/svg" xmlns:xlink="http://www.w3.org/1999/xlink" x="0px" y="0px" viewBox="0 0 1000 1000" enable-background="new 0 0 1000 1000" xml:space="preserve">
<metadata> Svg Vector Icons : http://www.onlinewebfonts.com/icon </metadata>
<g><path d="M500,990c271.1,0,490-218.9,490-490c0-271.1-218.9-490-490-490C228.9,10,10,228.9,10,500C10,771.1,228.9,990,500,990L500,990L500,990z M500,72.1c235.2,0,427.9,192.7,427.9,427.9c0,235.2-192.7,427.9-427.9,427.9C264.8,927.9,72.1,735.2,72.1,500C72.1,264.8,264.8,72.1,500,72.1L500,72.1L500,72.1z M500,176.6c104.5,0,192.7,84.9,192.7,189.5c0,104.5-84.9,189.5-192.7,189.5c-104.5,0-192.7-84.9-192.7-189.5C307.3,261.5,395.5,176.6,500,176.6L500,176.6L500,176.6z M500,503.3c75.1,0,137.2-62.1,137.2-133.9c0-75.1-62.1-133.9-137.2-133.9c-75.1,0-137.2,62.1-137.2,133.9C362.8,441.2,424.9,503.3,500,503.3L500,503.3L500,503.3z M500,503.3c150.3,0,274.4,120.9,274.4,271.1h-55.5c0-120.9-98-215.6-218.9-215.6s-218.9,98-218.9,215.6h-55.5C225.6,624.1,349.7,503.3,500,503.3L500,503.3L500,503.3z"/></g>
</svg>